<mxfile host="app.diagrams.net" agent="Mozilla/5.0 (Windows NT 10.0; Win64; x64) AppleWebKit/537.36 (KHTML, like Gecko) Chrome/137.0.0.0 Safari/537.36" version="27.1.6">
  <diagram name="Page-1" id="DMoo3clm2F_cZJ3uX30K">
    <mxGraphModel dx="1489" dy="753" grid="1" gridSize="10" guides="1" tooltips="1" connect="1" arrows="1" fold="1" page="1" pageScale="1" pageWidth="850" pageHeight="1100" math="0" shadow="0">
      <root>
        <mxCell id="0" />
        <mxCell id="1" parent="0" />
        <mxCell id="YbxSomJ0mc-3vk1y6hy4-1" value="Nhân viên bán hàng" style="swimlane;childLayout=stackLayout;horizontal=1;startSize=50;horizontalStack=0;rounded=1;fontSize=14;fontStyle=0;strokeWidth=2;resizeParent=0;resizeLast=1;shadow=0;dashed=0;align=center;arcSize=4;whiteSpace=wrap;html=1;" vertex="1" parent="1">
          <mxGeometry x="40" y="50" width="160" height="160" as="geometry" />
        </mxCell>
        <mxCell id="YbxSomJ0mc-3vk1y6hy4-2" value="&lt;u&gt;MãNV&lt;/u&gt;&lt;div&gt;giới tính&lt;/div&gt;&lt;div&gt;Họ và tên&lt;/div&gt;&lt;div&gt;CCCD&lt;/div&gt;&lt;div&gt;&lt;br&gt;&lt;/div&gt;" style="align=left;strokeColor=none;fillColor=none;spacingLeft=4;spacingRight=4;fontSize=12;verticalAlign=top;resizable=0;rotatable=0;part=1;html=1;whiteSpace=wrap;" vertex="1" parent="YbxSomJ0mc-3vk1y6hy4-1">
          <mxGeometry y="50" width="160" height="110" as="geometry" />
        </mxCell>
        <mxCell id="YbxSomJ0mc-3vk1y6hy4-3" value="Chi nhánh" style="swimlane;childLayout=stackLayout;horizontal=1;startSize=50;horizontalStack=0;rounded=1;fontSize=14;fontStyle=0;strokeWidth=2;resizeParent=0;resizeLast=1;shadow=0;dashed=0;align=center;arcSize=4;whiteSpace=wrap;html=1;" vertex="1" parent="1">
          <mxGeometry x="260" y="50" width="165" height="170" as="geometry" />
        </mxCell>
        <mxCell id="YbxSomJ0mc-3vk1y6hy4-4" value="&lt;u&gt;MãCN&lt;/u&gt;&lt;div&gt;Tên&lt;/div&gt;&lt;div&gt;Liên Hệ&lt;/div&gt;&lt;div&gt;Ngày Thành Lập&lt;/div&gt;&lt;div&gt;Địa chỉ&lt;/div&gt;" style="align=left;strokeColor=none;fillColor=none;spacingLeft=4;spacingRight=4;fontSize=12;verticalAlign=top;resizable=0;rotatable=0;part=1;html=1;whiteSpace=wrap;" vertex="1" parent="YbxSomJ0mc-3vk1y6hy4-3">
          <mxGeometry y="50" width="165" height="120" as="geometry" />
        </mxCell>
        <mxCell id="YbxSomJ0mc-3vk1y6hy4-5" value="Hình thức thanh toán" style="swimlane;childLayout=stackLayout;horizontal=1;startSize=50;horizontalStack=0;rounded=1;fontSize=14;fontStyle=0;strokeWidth=2;resizeParent=0;resizeLast=1;shadow=0;dashed=0;align=center;arcSize=4;whiteSpace=wrap;html=1;" vertex="1" parent="1">
          <mxGeometry x="460" y="50" width="160" height="120" as="geometry" />
        </mxCell>
        <mxCell id="YbxSomJ0mc-3vk1y6hy4-6" value="&lt;u&gt;Phương thức&lt;/u&gt;&lt;div&gt;hạn mức&lt;/div&gt;&lt;div&gt;tên&lt;/div&gt;" style="align=left;strokeColor=none;fillColor=none;spacingLeft=4;spacingRight=4;fontSize=12;verticalAlign=top;resizable=0;rotatable=0;part=1;html=1;whiteSpace=wrap;" vertex="1" parent="YbxSomJ0mc-3vk1y6hy4-5">
          <mxGeometry y="50" width="160" height="70" as="geometry" />
        </mxCell>
        <mxCell id="YbxSomJ0mc-3vk1y6hy4-7" value="Tài xế" style="swimlane;childLayout=stackLayout;horizontal=1;startSize=50;horizontalStack=0;rounded=1;fontSize=14;fontStyle=0;strokeWidth=2;resizeParent=0;resizeLast=1;shadow=0;dashed=0;align=center;arcSize=4;whiteSpace=wrap;html=1;" vertex="1" parent="1">
          <mxGeometry x="640" y="45" width="170" height="170" as="geometry" />
        </mxCell>
        <mxCell id="YbxSomJ0mc-3vk1y6hy4-8" value="&lt;u&gt;Mataixe&lt;/u&gt;&lt;div&gt;Ngày sinh&lt;/div&gt;&lt;div&gt;giới tính&lt;/div&gt;&lt;div&gt;Họ và tên&lt;/div&gt;&lt;div&gt;CCCD&lt;/div&gt;&lt;div&gt;Số bằng lái&lt;/div&gt;" style="align=left;strokeColor=none;fillColor=none;spacingLeft=4;spacingRight=4;fontSize=12;verticalAlign=top;resizable=0;rotatable=0;part=1;html=1;whiteSpace=wrap;" vertex="1" parent="YbxSomJ0mc-3vk1y6hy4-7">
          <mxGeometry y="50" width="170" height="120" as="geometry" />
        </mxCell>
        <mxCell id="YbxSomJ0mc-3vk1y6hy4-9" value="Hóa đơn&amp;nbsp;" style="swimlane;childLayout=stackLayout;horizontal=1;startSize=50;horizontalStack=0;rounded=1;fontSize=14;fontStyle=0;strokeWidth=2;resizeParent=0;resizeLast=1;shadow=0;dashed=0;align=center;arcSize=4;whiteSpace=wrap;html=1;" vertex="1" parent="1">
          <mxGeometry x="30" y="250" width="160" height="120" as="geometry" />
        </mxCell>
        <mxCell id="YbxSomJ0mc-3vk1y6hy4-10" value="&lt;u&gt;MãHD&lt;/u&gt;&lt;div&gt;Ngày xuất đơn&lt;/div&gt;&lt;div&gt;địa điểm&lt;/div&gt;" style="align=left;strokeColor=none;fillColor=none;spacingLeft=4;spacingRight=4;fontSize=12;verticalAlign=top;resizable=0;rotatable=0;part=1;html=1;whiteSpace=wrap;" vertex="1" parent="YbxSomJ0mc-3vk1y6hy4-9">
          <mxGeometry y="50" width="160" height="70" as="geometry" />
        </mxCell>
        <mxCell id="YbxSomJ0mc-3vk1y6hy4-11" value="Khách hàng" style="swimlane;childLayout=stackLayout;horizontal=1;startSize=50;horizontalStack=0;rounded=1;fontSize=14;fontStyle=0;strokeWidth=2;resizeParent=0;resizeLast=1;shadow=0;dashed=0;align=center;arcSize=4;whiteSpace=wrap;html=1;" vertex="1" parent="1">
          <mxGeometry x="30" y="410" width="160" height="120" as="geometry" />
        </mxCell>
        <mxCell id="YbxSomJ0mc-3vk1y6hy4-12" value="&lt;u&gt;MãKH&lt;/u&gt;&lt;div&gt;Họ tên&lt;/div&gt;&lt;div&gt;ngày sinh&lt;/div&gt;&lt;div&gt;CCCD&lt;/div&gt;" style="align=left;strokeColor=none;fillColor=none;spacingLeft=4;spacingRight=4;fontSize=12;verticalAlign=top;resizable=0;rotatable=0;part=1;html=1;whiteSpace=wrap;" vertex="1" parent="YbxSomJ0mc-3vk1y6hy4-11">
          <mxGeometry y="50" width="160" height="70" as="geometry" />
        </mxCell>
        <mxCell id="YbxSomJ0mc-3vk1y6hy4-14" value="Đơn" style="swimlane;childLayout=stackLayout;horizontal=1;startSize=50;horizontalStack=0;rounded=1;fontSize=14;fontStyle=0;strokeWidth=2;resizeParent=0;resizeLast=1;shadow=0;dashed=0;align=center;arcSize=4;whiteSpace=wrap;html=1;" vertex="1" parent="1">
          <mxGeometry x="850" y="50" width="160" height="120" as="geometry" />
        </mxCell>
        <mxCell id="YbxSomJ0mc-3vk1y6hy4-15" value="&lt;u&gt;MãDonHang&lt;/u&gt;&lt;div&gt;Mô tả&lt;/div&gt;&lt;div&gt;Tình trạng&lt;/div&gt;&lt;div&gt;Ngày đặt&lt;/div&gt;" style="align=left;strokeColor=none;fillColor=none;spacingLeft=4;spacingRight=4;fontSize=12;verticalAlign=top;resizable=0;rotatable=0;part=1;html=1;whiteSpace=wrap;" vertex="1" parent="YbxSomJ0mc-3vk1y6hy4-14">
          <mxGeometry y="50" width="160" height="70" as="geometry" />
        </mxCell>
        <mxCell id="YbxSomJ0mc-3vk1y6hy4-16" value="Đánh giá" style="swimlane;childLayout=stackLayout;horizontal=1;startSize=50;horizontalStack=0;rounded=1;fontSize=14;fontStyle=0;strokeWidth=2;resizeParent=0;resizeLast=1;shadow=0;dashed=0;align=center;arcSize=4;whiteSpace=wrap;html=1;" vertex="1" parent="1">
          <mxGeometry x="850" y="215" width="160" height="120" as="geometry" />
        </mxCell>
        <mxCell id="YbxSomJ0mc-3vk1y6hy4-17" value="&lt;u&gt;ID&lt;/u&gt;&lt;div&gt;Nội dung&lt;/div&gt;&lt;div&gt;Ngày&lt;/div&gt;" style="align=left;strokeColor=none;fillColor=none;spacingLeft=4;spacingRight=4;fontSize=12;verticalAlign=top;resizable=0;rotatable=0;part=1;html=1;whiteSpace=wrap;" vertex="1" parent="YbxSomJ0mc-3vk1y6hy4-16">
          <mxGeometry y="50" width="160" height="70" as="geometry" />
        </mxCell>
        <mxCell id="YbxSomJ0mc-3vk1y6hy4-18" value="Nhà cung cấp" style="swimlane;childLayout=stackLayout;horizontal=1;startSize=50;horizontalStack=0;rounded=1;fontSize=14;fontStyle=0;strokeWidth=2;resizeParent=0;resizeLast=1;shadow=0;dashed=0;align=center;arcSize=4;whiteSpace=wrap;html=1;" vertex="1" parent="1">
          <mxGeometry x="860" y="370" width="160" height="120" as="geometry" />
        </mxCell>
        <mxCell id="YbxSomJ0mc-3vk1y6hy4-19" value="&lt;u&gt;MãNhaCC&lt;/u&gt;&lt;div&gt;Tên&lt;/div&gt;&lt;div&gt;Địa chỉ&lt;/div&gt;&lt;div&gt;SĐT&lt;/div&gt;" style="align=left;strokeColor=none;fillColor=none;spacingLeft=4;spacingRight=4;fontSize=12;verticalAlign=top;resizable=0;rotatable=0;part=1;html=1;whiteSpace=wrap;" vertex="1" parent="YbxSomJ0mc-3vk1y6hy4-18">
          <mxGeometry y="50" width="160" height="70" as="geometry" />
        </mxCell>
        <mxCell id="YbxSomJ0mc-3vk1y6hy4-20" value="Sản Phẩm" style="swimlane;childLayout=stackLayout;horizontal=1;startSize=50;horizontalStack=0;rounded=1;fontSize=14;fontStyle=0;strokeWidth=2;resizeParent=0;resizeLast=1;shadow=0;dashed=0;align=center;arcSize=4;whiteSpace=wrap;html=1;" vertex="1" parent="1">
          <mxGeometry x="260" y="410" width="160" height="120" as="geometry" />
        </mxCell>
        <mxCell id="YbxSomJ0mc-3vk1y6hy4-21" value="&lt;u&gt;MaSP&lt;/u&gt;&lt;div&gt;Tên&lt;/div&gt;&lt;div&gt;Gía mua&lt;/div&gt;&lt;div&gt;Gía bán&lt;/div&gt;" style="align=left;strokeColor=none;fillColor=none;spacingLeft=4;spacingRight=4;fontSize=12;verticalAlign=top;resizable=0;rotatable=0;part=1;html=1;whiteSpace=wrap;" vertex="1" parent="YbxSomJ0mc-3vk1y6hy4-20">
          <mxGeometry y="50" width="160" height="70" as="geometry" />
        </mxCell>
        <mxCell id="YbxSomJ0mc-3vk1y6hy4-22" value="Kho" style="swimlane;childLayout=stackLayout;horizontal=1;startSize=50;horizontalStack=0;rounded=1;fontSize=14;fontStyle=0;strokeWidth=2;resizeParent=0;resizeLast=1;shadow=0;dashed=0;align=center;arcSize=4;whiteSpace=wrap;html=1;" vertex="1" parent="1">
          <mxGeometry x="470" y="410" width="160" height="120" as="geometry" />
        </mxCell>
        <mxCell id="YbxSomJ0mc-3vk1y6hy4-23" value="&lt;u&gt;Mã Số&lt;/u&gt;&lt;div&gt;Thông tin&lt;/div&gt;&lt;div&gt;địa chỉ&lt;/div&gt;&lt;div&gt;giấy phép&lt;/div&gt;" style="align=left;strokeColor=none;fillColor=none;spacingLeft=4;spacingRight=4;fontSize=12;verticalAlign=top;resizable=0;rotatable=0;part=1;html=1;whiteSpace=wrap;" vertex="1" parent="YbxSomJ0mc-3vk1y6hy4-22">
          <mxGeometry y="50" width="160" height="70" as="geometry" />
        </mxCell>
        <mxCell id="YbxSomJ0mc-3vk1y6hy4-24" value="Thùng Hàng" style="swimlane;childLayout=stackLayout;horizontal=1;startSize=50;horizontalStack=0;rounded=1;fontSize=14;fontStyle=0;strokeWidth=2;resizeParent=0;resizeLast=1;shadow=0;dashed=0;align=center;arcSize=4;whiteSpace=wrap;html=1;" vertex="1" parent="1">
          <mxGeometry x="670" y="400" width="160" height="120" as="geometry" />
        </mxCell>
        <mxCell id="YbxSomJ0mc-3vk1y6hy4-25" value="&lt;u&gt;MãThungHang&lt;/u&gt;&lt;div&gt;Ngày đóng&lt;/div&gt;&lt;div&gt;chất liệu&lt;/div&gt;" style="align=left;strokeColor=none;fillColor=none;spacingLeft=4;spacingRight=4;fontSize=12;verticalAlign=top;resizable=0;rotatable=0;part=1;html=1;whiteSpace=wrap;" vertex="1" parent="YbxSomJ0mc-3vk1y6hy4-24">
          <mxGeometry y="50" width="160" height="70" as="geometry" />
        </mxCell>
        <mxCell id="YbxSomJ0mc-3vk1y6hy4-26" value="Phương tiện" style="swimlane;childLayout=stackLayout;horizontal=1;startSize=50;horizontalStack=0;rounded=1;fontSize=14;fontStyle=0;strokeWidth=2;resizeParent=0;resizeLast=1;shadow=0;dashed=0;align=center;arcSize=4;whiteSpace=wrap;html=1;" vertex="1" parent="1">
          <mxGeometry x="410" y="240" width="160" height="120" as="geometry" />
        </mxCell>
        <mxCell id="YbxSomJ0mc-3vk1y6hy4-27" value="&lt;u&gt;Mãxe&lt;/u&gt;&lt;div&gt;số xe&lt;/div&gt;&lt;div&gt;Loại&lt;/div&gt;" style="align=left;strokeColor=none;fillColor=none;spacingLeft=4;spacingRight=4;fontSize=12;verticalAlign=top;resizable=0;rotatable=0;part=1;html=1;whiteSpace=wrap;" vertex="1" parent="YbxSomJ0mc-3vk1y6hy4-26">
          <mxGeometry y="50" width="160" height="70" as="geometry" />
        </mxCell>
      </root>
    </mxGraphModel>
  </diagram>
</mxfile>
